<mxfile host="app.diagrams.net" agent="Mozilla/5.0 (Windows NT 10.0; Win64; x64) AppleWebKit/537.36 (KHTML, like Gecko) Chrome/130.0.0.0 Safari/537.36" version="24.8.3">
  <diagram name="Seite-1" id="oJDCI8ETv8zkShUsoe8n">
    <mxGraphModel dx="1232" dy="1097" grid="1" gridSize="10" guides="1" tooltips="1" connect="1" arrows="1" fold="1" page="1" pageScale="1" pageWidth="827" pageHeight="1169" math="0" shadow="0">
      <root>
        <mxCell id="0" />
        <mxCell id="1" parent="0" />
        <mxCell id="HWrymoXPi1oPv0uhaC2f-2" value="" style="rounded=0;whiteSpace=wrap;html=1;rotation=-90;fillColor=#1ba1e2;strokeColor=#006EAF;fontColor=#ffffff;" parent="1" vertex="1">
          <mxGeometry x="45.31" y="287.2" width="129.38" height="10" as="geometry" />
        </mxCell>
        <mxCell id="HWrymoXPi1oPv0uhaC2f-3" value=": HauptmenÃ¼" style="rounded=0;whiteSpace=wrap;html=1;fillColor=#1ba1e2;fontColor=#ffffff;strokeColor=#006EAF;" parent="1" vertex="1">
          <mxGeometry x="50" y="130" width="120" height="60" as="geometry" />
        </mxCell>
        <mxCell id="HWrymoXPi1oPv0uhaC2f-5" value="" style="endArrow=none;dashed=1;html=1;rounded=0;entryX=0.5;entryY=1;entryDx=0;entryDy=0;exitX=1;exitY=0.5;exitDx=0;exitDy=0;" parent="1" source="HWrymoXPi1oPv0uhaC2f-2" target="HWrymoXPi1oPv0uhaC2f-3" edge="1">
          <mxGeometry width="50" height="50" relative="1" as="geometry">
            <mxPoint x="370" y="450" as="sourcePoint" />
            <mxPoint x="420" y="400" as="targetPoint" />
          </mxGeometry>
        </mxCell>
        <mxCell id="HWrymoXPi1oPv0uhaC2f-6" value="" style="rounded=0;whiteSpace=wrap;html=1;rotation=-90;fillColor=#1ba1e2;strokeColor=#006EAF;fontColor=#ffffff;" parent="1" vertex="1">
          <mxGeometry x="307.69" y="502.69" width="204.62" height="10" as="geometry" />
        </mxCell>
        <mxCell id="HWrymoXPi1oPv0uhaC2f-7" value="" style="rounded=0;whiteSpace=wrap;html=1;rotation=-90;fillColor=#1ba1e2;strokeColor=#006EAF;fontColor=#ffffff;" parent="1" vertex="1">
          <mxGeometry x="470" y="410" width="380" height="10" as="geometry" />
        </mxCell>
        <mxCell id="HWrymoXPi1oPv0uhaC2f-9" value=": Spiel" style="rounded=0;whiteSpace=wrap;html=1;fillColor=#1ba1e2;fontColor=#ffffff;strokeColor=#006EAF;" parent="1" vertex="1">
          <mxGeometry x="350" y="300" width="120" height="60" as="geometry" />
        </mxCell>
        <mxCell id="HWrymoXPi1oPv0uhaC2f-10" value=": Savefile" style="rounded=0;whiteSpace=wrap;html=1;fillColor=#1ba1e2;fontColor=#ffffff;strokeColor=#006EAF;" parent="1" vertex="1">
          <mxGeometry x="600" y="130" width="120" height="60" as="geometry" />
        </mxCell>
        <mxCell id="HWrymoXPi1oPv0uhaC2f-11" value="" style="endArrow=none;dashed=1;html=1;rounded=0;entryX=0.5;entryY=1;entryDx=0;entryDy=0;exitX=1;exitY=0.5;exitDx=0;exitDy=0;" parent="1" target="HWrymoXPi1oPv0uhaC2f-9" edge="1">
          <mxGeometry width="50" height="50" relative="1" as="geometry">
            <mxPoint x="410" y="395" as="sourcePoint" />
            <mxPoint x="409.5" y="280" as="targetPoint" />
          </mxGeometry>
        </mxCell>
        <mxCell id="HWrymoXPi1oPv0uhaC2f-12" value="" style="endArrow=none;dashed=1;html=1;rounded=0;entryX=0.5;entryY=1;entryDx=0;entryDy=0;exitX=1;exitY=0.5;exitDx=0;exitDy=0;" parent="1" source="HWrymoXPi1oPv0uhaC2f-7" target="HWrymoXPi1oPv0uhaC2f-10" edge="1">
          <mxGeometry width="50" height="50" relative="1" as="geometry">
            <mxPoint x="560" y="340" as="sourcePoint" />
            <mxPoint x="610" y="290" as="targetPoint" />
          </mxGeometry>
        </mxCell>
        <mxCell id="HWrymoXPi1oPv0uhaC2f-16" value="" style="endArrow=classic;dashed=1;html=1;rounded=0;entryX=0;entryY=0.5;entryDx=0;entryDy=0;endFill=1;exitX=0.207;exitY=1.214;exitDx=0;exitDy=0;exitPerimeter=0;" parent="1" source="HWrymoXPi1oPv0uhaC2f-2" target="HWrymoXPi1oPv0uhaC2f-9" edge="1">
          <mxGeometry width="50" height="50" relative="1" as="geometry">
            <mxPoint x="120" y="330" as="sourcePoint" />
            <mxPoint x="360" y="470" as="targetPoint" />
          </mxGeometry>
        </mxCell>
        <mxCell id="HWrymoXPi1oPv0uhaC2f-17" value="2. &amp;lt;&amp;lt;Create&amp;gt;&amp;gt;" style="text;html=1;align=center;verticalAlign=middle;whiteSpace=wrap;rounded=0;" parent="1" vertex="1">
          <mxGeometry x="200" y="300" width="90" height="30" as="geometry" />
        </mxCell>
        <mxCell id="HWrymoXPi1oPv0uhaC2f-18" value="" style="endArrow=classic;html=1;rounded=0;exitX=1;exitY=1;exitDx=0;exitDy=0;entryX=1;entryY=0;entryDx=0;entryDy=0;endFill=1;" parent="1" source="HWrymoXPi1oPv0uhaC2f-2" target="HWrymoXPi1oPv0uhaC2f-7" edge="1">
          <mxGeometry width="50" height="50" relative="1" as="geometry">
            <mxPoint x="310" y="520" as="sourcePoint" />
            <mxPoint x="360" y="470" as="targetPoint" />
          </mxGeometry>
        </mxCell>
        <mxCell id="HWrymoXPi1oPv0uhaC2f-19" value="1. getSaveFile(PlayerID)" style="text;html=1;align=center;verticalAlign=middle;whiteSpace=wrap;rounded=0;" parent="1" vertex="1">
          <mxGeometry x="340" y="190" width="140" height="30" as="geometry" />
        </mxCell>
        <mxCell id="HWrymoXPi1oPv0uhaC2f-22" value="" style="endArrow=classic;html=1;rounded=0;entryX=0.75;entryY=1;entryDx=0;entryDy=0;exitX=0.914;exitY=1.1;exitDx=0;exitDy=0;exitPerimeter=0;" parent="1" edge="1">
          <mxGeometry width="50" height="50" relative="1" as="geometry">
            <mxPoint x="415.9949999999999" y="455.10049999999995" as="sourcePoint" />
            <mxPoint x="414.9949999999999" y="512.3775" as="targetPoint" />
            <Array as="points">
              <mxPoint x="460" y="454.69" />
              <mxPoint x="460" y="512.69" />
            </Array>
          </mxGeometry>
        </mxCell>
        <mxCell id="HWrymoXPi1oPv0uhaC2f-23" value="Restart()" style="text;html=1;align=center;verticalAlign=middle;whiteSpace=wrap;rounded=0;" parent="1" vertex="1">
          <mxGeometry x="460" y="470" width="60" height="30" as="geometry" />
        </mxCell>
        <mxCell id="HWrymoXPi1oPv0uhaC2f-24" value="" style="endArrow=classic;html=1;rounded=0;exitX=0.03;exitY=1.043;exitDx=0;exitDy=0;exitPerimeter=0;endFill=1;entryX=0.011;entryY=0.043;entryDx=0;entryDy=0;entryPerimeter=0;" parent="1" source="HWrymoXPi1oPv0uhaC2f-6" target="HWrymoXPi1oPv0uhaC2f-7" edge="1">
          <mxGeometry width="50" height="50" relative="1" as="geometry">
            <mxPoint x="413.9949999999999" y="597.78275" as="sourcePoint" />
            <mxPoint x="650" y="600" as="targetPoint" />
          </mxGeometry>
        </mxCell>
        <mxCell id="HWrymoXPi1oPv0uhaC2f-25" value="auto&lt;span style=&quot;background-color: initial;&quot;&gt;save(PlayerID)&lt;/span&gt;" style="text;html=1;align=center;verticalAlign=middle;whiteSpace=wrap;rounded=0;" parent="1" vertex="1">
          <mxGeometry x="490" y="570" width="60" height="30" as="geometry" />
        </mxCell>
        <mxCell id="HWrymoXPi1oPv0uhaC2f-26" value="" style="endArrow=classic;dashed=1;html=1;rounded=0;entryX=0.821;entryY=1.271;entryDx=0;entryDy=0;entryPerimeter=0;endFill=1;exitX=0.946;exitY=0.1;exitDx=0;exitDy=0;exitPerimeter=0;" parent="1" source="HWrymoXPi1oPv0uhaC2f-7" target="HWrymoXPi1oPv0uhaC2f-2" edge="1">
          <mxGeometry width="50" height="50" relative="1" as="geometry">
            <mxPoint x="650" y="252" as="sourcePoint" />
            <mxPoint x="390" y="240" as="targetPoint" />
          </mxGeometry>
        </mxCell>
        <mxCell id="HWrymoXPi1oPv0uhaC2f-27" value="Return()" style="text;html=1;align=center;verticalAlign=middle;whiteSpace=wrap;rounded=0;" parent="1" vertex="1">
          <mxGeometry x="370" y="250" width="60" height="30" as="geometry" />
        </mxCell>
        <mxCell id="HWrymoXPi1oPv0uhaC2f-28" value="" style="endArrow=classic;dashed=1;html=1;rounded=0;endFill=1;exitX=0.027;exitY=-0.1;exitDx=0;exitDy=0;exitPerimeter=0;entryX=1;entryY=1;entryDx=0;entryDy=0;" parent="1" source="HWrymoXPi1oPv0uhaC2f-6" target="HWrymoXPi1oPv0uhaC2f-30" edge="1">
          <mxGeometry width="50" height="50" relative="1" as="geometry">
            <mxPoint x="200" y="750" as="sourcePoint" />
            <mxPoint x="150" y="598" as="targetPoint" />
          </mxGeometry>
        </mxCell>
        <mxCell id="HWrymoXPi1oPv0uhaC2f-29" value="Return()" style="text;html=1;align=center;verticalAlign=middle;whiteSpace=wrap;rounded=0;" parent="1" vertex="1">
          <mxGeometry x="240" y="600" width="60" height="30" as="geometry" />
        </mxCell>
        <mxCell id="HWrymoXPi1oPv0uhaC2f-30" value="" style="rounded=0;whiteSpace=wrap;html=1;rotation=-90;fillColor=#1ba1e2;strokeColor=#006EAF;fontColor=#ffffff;" parent="1" vertex="1">
          <mxGeometry x="47.66" y="662.35" width="124.69" height="10" as="geometry" />
        </mxCell>
        <mxCell id="HWrymoXPi1oPv0uhaC2f-31" value="" style="endArrow=none;dashed=1;html=1;rounded=0;entryX=0;entryY=0.5;entryDx=0;entryDy=0;exitX=1;exitY=0.5;exitDx=0;exitDy=0;" parent="1" source="HWrymoXPi1oPv0uhaC2f-30" target="HWrymoXPi1oPv0uhaC2f-2" edge="1">
          <mxGeometry width="50" height="50" relative="1" as="geometry">
            <mxPoint x="90" y="430" as="sourcePoint" />
            <mxPoint x="140" y="380" as="targetPoint" />
          </mxGeometry>
        </mxCell>
        <mxCell id="HWrymoXPi1oPv0uhaC2f-33" value="" style="rounded=0;whiteSpace=wrap;html=1;fillColor=none;" parent="1" vertex="1">
          <mxGeometry x="350" y="441.5" width="180" height="87" as="geometry" />
        </mxCell>
        <mxCell id="HWrymoXPi1oPv0uhaC2f-34" value="opt&lt;span style=&quot;white-space: pre;&quot;&gt;&#x9;&lt;/span&gt;" style="rounded=0;whiteSpace=wrap;html=1;" parent="1" vertex="1">
          <mxGeometry x="350" y="442.69" width="50" height="27.31" as="geometry" />
        </mxCell>
        <mxCell id="HWrymoXPi1oPv0uhaC2f-35" value="" style="endArrow=none;dashed=1;html=1;rounded=0;entryX=0;entryY=0.5;entryDx=0;entryDy=0;" parent="1" target="HWrymoXPi1oPv0uhaC2f-30" edge="1">
          <mxGeometry width="50" height="50" relative="1" as="geometry">
            <mxPoint x="110" y="760" as="sourcePoint" />
            <mxPoint x="130" y="740" as="targetPoint" />
          </mxGeometry>
        </mxCell>
        <mxCell id="HWrymoXPi1oPv0uhaC2f-36" value="" style="endArrow=none;dashed=1;html=1;rounded=0;entryX=0;entryY=0.5;entryDx=0;entryDy=0;" parent="1" target="HWrymoXPi1oPv0uhaC2f-6" edge="1">
          <mxGeometry width="50" height="50" relative="1" as="geometry">
            <mxPoint x="410" y="760" as="sourcePoint" />
            <mxPoint x="430" y="630" as="targetPoint" />
          </mxGeometry>
        </mxCell>
        <mxCell id="HWrymoXPi1oPv0uhaC2f-37" value="" style="endArrow=none;dashed=1;html=1;rounded=0;entryX=0;entryY=0.5;entryDx=0;entryDy=0;" parent="1" target="HWrymoXPi1oPv0uhaC2f-7" edge="1">
          <mxGeometry width="50" height="50" relative="1" as="geometry">
            <mxPoint x="660" y="760" as="sourcePoint" />
            <mxPoint x="690" y="620" as="targetPoint" />
          </mxGeometry>
        </mxCell>
      </root>
    </mxGraphModel>
  </diagram>
</mxfile>
